<?xml version="1.0" encoding="utf-8"?>
<!-- Generator: Adobe Illustrator 24.3.0, SVG Export Plug-In . SVG Version: 6.00 Build 0)  -->
<svg version="1.1" id="Layer_1" xmlns="http://www.w3.org/2000/svg" xmlns:xlink="http://www.w3.org/1999/xlink" x="0px" y="0px"
	 viewBox="0 0 155.58 72.33" style="enable-background:new 0 0 155.58 72.33;" xml:space="preserve">
<style type="text/css">
	.st0{fill:#BE1E2D;stroke:#BE1E2D;stroke-miterlimit:10;}
	.st1{fill:#BE1E2D;}
	.st2{fill:#FFFFFF;}
	.st3{fill:#BE1E2D;stroke:#BE1E2D;stroke-width:0.5;stroke-miterlimit:10;}
	.st4{fill:#BE1E2D;stroke:#BE1E2D;stroke-width:2;stroke-miterlimit:10;}
	.st5{fill:none;stroke:#BE1E2D;stroke-width:5;stroke-miterlimit:10;}
</style>
<g>
	<polygon class="st0" points="52.15,50.09 45.65,50.09 39.16,50.09 42.41,46.95 45.65,43.82 48.9,46.95 	"/>
	<g>
		<path class="st1" d="M26.97,40.83c-1.73,0-2.31,0.03-3.36,0.17v-6.01c1.26,0.17,2.07,0.2,4.45,0.2h2.72
			c1.73,0,2.99-0.03,4.48-0.17c-0.17,1.29-0.24,2.41-0.24,4.62v3.8c0,2.41,0.03,3.5,0.24,5.06c-1.87,1.19-2.78,1.63-4.31,2.14
			c-2.21,0.75-4.69,1.15-7.2,1.15c-4.31,0-7.67-1.19-10.08-3.63c-2.58-2.58-4.01-6.62-4.01-11.27c0-8.93,5.4-14.6,13.96-14.6
			c4.24,0,7.47,1.32,9.71,4.04c0.92,1.05,1.46,2.07,2,3.7l-6.93,1.6c-0.37-1.22-0.78-1.87-1.53-2.44c-0.88-0.71-2-1.05-3.43-1.05
			c-4.35,0-6.72,3.16-6.72,8.86c0,3.16,0.71,5.6,2.07,7.1c1.09,1.19,2.75,1.83,4.89,1.83c1.8,0,3.26-0.37,4.92-1.22v-3.87H26.97z"/>
	</g>
	<g>
		<path class="st1" d="M114.32,38.27c0.92,1.37,1.52,2.38,2.29,3.78c-0.13-1.46-0.19-2.92-0.19-4.7V30.1c0-2.1-0.06-3.37-0.25-4.83
			h6.77c-0.19,1.43-0.25,2.76-0.25,4.83v16.87c0,1.94,0.1,3.4,0.25,4.73h-6.96c-0.57-1.21-1.3-2.38-2.38-4.03l-5.88-8.86
			c-0.86-1.27-1.4-2.22-2.29-3.91c0.16,1.43,0.22,3.18,0.22,4.73v7.12c0,2.19,0.06,3.59,0.25,4.96h-6.77
			c0.19-1.24,0.25-2.64,0.25-4.99V30.01c0-1.84-0.06-3.27-0.25-4.73h6.89c0.32,0.86,1.02,2.13,2.26,3.97L114.32,38.27z"/>
	</g>
	<g>
		<path class="st1" d="M140.97,44.48c-0.19-1.13-0.33-1.74-0.56-2.54l-0.64-2h-6.71l-0.64,2c-0.31,0.94-0.47,1.67-0.59,2.54h-5.51
			c0.35-0.71,0.56-1.27,1.13-2.87l5.08-14.17c0.42-1.15,0.64-1.86,0.75-2.54h6.14c0.16,0.68,0.33,1.29,0.8,2.54l5.11,14.17
			c0.45,1.25,0.82,2.21,1.13,2.87H140.97z M136.38,28.92l-2.19,7.06h4.42L136.38,28.92z"/>
	</g>
	<g>
		<path class="st1" d="M37.64,33.57c0-4.96,3.17-8.1,8.18-8.1c5.01,0,8.18,3.15,8.18,8.05c0,4.93-3.27,8.2-8.2,8.2
			C40.81,41.73,37.64,38.55,37.64,33.57z M42.37,33.55c0,2.75,1.29,4.41,3.44,4.41c2.16,0,3.4-1.61,3.4-4.36
			c0-2.78-1.26-4.41-3.37-4.41C43.66,29.19,42.37,30.82,42.37,33.55z"/>
	</g>
	<g>
		<path class="st1" d="M77.74,40.77c-1.73,0-2.31,0.03-3.36,0.17v-6.01c1.26,0.17,2.07,0.2,4.45,0.2h2.72
			c1.73,0,2.99-0.03,4.48-0.17c-0.17,1.29-0.24,2.41-0.24,4.62v3.8c0,2.41,0.03,3.5,0.24,5.06c-1.87,1.19-2.78,1.63-4.31,2.14
			c-2.21,0.75-4.69,1.15-7.2,1.15c-4.31,0-7.67-1.19-10.09-3.63c-2.58-2.58-4.01-6.62-4.01-11.27c0-8.93,5.4-14.6,13.96-14.6
			c4.24,0,7.47,1.32,9.71,4.04c0.92,1.05,1.46,2.07,2,3.7l-6.93,1.6c-0.37-1.22-0.78-1.87-1.53-2.44c-0.88-0.71-2-1.05-3.43-1.05
			c-4.35,0-6.72,3.16-6.72,8.86c0,3.16,0.71,5.6,2.07,7.1c1.09,1.19,2.75,1.83,4.89,1.83c1.8,0,3.26-0.37,4.92-1.22v-3.87H77.74z"/>
	</g>
	
		<rect x="40.5" y="28.94" transform="matrix(0.9985 0.0542 -0.0542 0.9985 1.9161 -2.4106)" class="st1" width="9.76" height="10.33"/>
	<rect x="133.11" y="27.9" class="st1" width="6.39" height="9.07"/>
	<ellipse class="st2" cx="45.8" cy="33.54" rx="3.68" ry="3.74"/>
	<g>
		<path class="st1" d="M95.23,37.74c0-2.13,0.06-3.34,0.25-4.59h-6.54c0.19,1.37,0.25,2.61,0.25,4.59v9.36
			c0,1.94-0.06,3.1-0.25,4.59h6.54c-0.16-1.31-0.25-2.95-0.25-4.59V37.74z"/>
	</g>
	<circle class="st3" cx="92.37" cy="27.43" r="3.73"/>
	<polygon class="st2" points="139.51,36.22 136.49,36.25 133.48,36.27 134.96,32.49 136.43,28.71 137.97,32.47 	"/>
	<rect x="125.58" y="46.44" class="st1" width="21.49" height="5.29"/>
	<polygon class="st1" points="7.68,10.37 12.63,10.49 17.58,10.61 15.03,13.64 12.48,16.67 10.08,13.52 	"/>
	<line class="st4" x1="10.01" y1="10.9" x2="146.25" y2="10.9"/>
	<polygon class="st1" points="16.48,10.81 21.44,10.8 26.39,10.79 23.92,13.11 21.45,15.44 18.97,13.12 	"/>
	<polygon class="st1" points="24.98,10.81 29.94,10.8 34.89,10.79 32.42,13.11 29.95,15.44 27.46,13.12 	"/>
	<polygon class="st1" points="33.54,11 38.49,10.99 43.44,10.98 40.97,13.3 38.5,15.63 36.02,13.31 	"/>
	<polygon class="st1" points="42.17,11.05 47.12,11.03 52.07,11.02 49.6,13.35 47.13,15.67 44.65,13.36 	"/>
	<polygon class="st1" points="51.03,11.05 55.98,11.03 60.93,11.02 58.46,13.35 55.99,15.67 53.51,13.36 	"/>
	<polygon class="st1" points="59.7,10.99 64.66,10.98 69.61,10.97 67.14,13.29 64.67,15.62 62.19,13.3 	"/>
	<polygon class="st1" points="68.57,11.05 73.52,11.03 78.48,11.02 76,13.35 73.53,15.67 71.05,13.36 	"/>
	<polygon class="st1" points="77.25,10.81 82.2,10.8 87.15,10.79 84.68,13.11 82.21,15.44 79.73,13.12 	"/>
	<polygon class="st1" points="85.62,10.82 90.57,10.81 95.52,10.79 93.05,13.12 90.58,15.44 88.1,13.13 	"/>
	<polygon class="st1" points="94.12,11.18 99.07,11.17 104.02,11.16 101.55,13.48 99.08,15.81 96.6,13.49 	"/>
	<polygon class="st1" points="103.34,11.18 108.29,11.17 113.24,11.16 110.77,13.48 108.3,15.81 105.82,13.49 	"/>
	<polygon class="st1" points="112.1,11.05 117.05,11.04 122,11.03 119.53,13.36 117.06,15.68 114.58,13.37 	"/>
	<polygon class="st1" points="121.24,11.18 126.19,11.17 131.15,11.16 128.67,13.48 126.2,15.81 123.72,13.49 	"/>
	<polygon class="st1" points="130.28,11.18 135.24,11.17 140.19,11.16 137.72,13.48 135.24,15.81 132.76,13.49 	"/>
	<polygon class="st1" points="139.02,10.47 143.97,10.34 148.92,10.21 146.53,13.42 144.14,16.63 141.58,13.55 	"/>
	<path class="st5" d="M12.03,57.75c1.08,2.94,2.48,4.98,4.33,5.29c2.84,0.49,4.22-3.53,8.01-3.66c3.78-0.13,4.57,3.79,8.29,3.73
		c4.08-0.07,5.13-4.8,8.94-4.58c3.2,0.19,3.65,3.6,6.91,3.72c3.51,0.13,4.32-3.78,7.86-3.81c3.82-0.04,4.81,4.5,8.44,4.34
		c3.54-0.15,4.24-4.55,7.71-4.58c3.36-0.04,4.19,4.06,7.68,4.03c3.22-0.02,3.8-3.54,7.09-3.66c3.7-0.14,4.75,4.22,8.29,4.03
		c3.53-0.18,4.27-4.63,7.56-4.59c3.24,0.04,3.94,4.37,7.37,4.49c3.02,0.11,3.9-3.19,7.24-3.36c3.11-0.15,3.67,3.55,6.6,3.56
		c3.18,0.02,3.76-3.98,7.09-4.28c3.56-0.32,4.98,4.05,8.75,4.19c1.77,0.07,4.39-0.78,7.71-5.35"/>
</g>
</svg>
